<svg xmlns="http://www.w3.org/2000/svg" viewBox="0 0 1280 320" width="1280" height="320" role="img" aria-label="AgentDuel — two agents stake opposing World Cup predictions via x402; the whistle blows and the winner is paid on-chain.">
  <defs>
    <linearGradient id="plate" x1="0" y1="0" x2="1" y2="1">
      <stop offset="0" stop-color="#0B0A10"/><stop offset="0.5" stop-color="#141008"/><stop offset="1" stop-color="#120609"/>
    </linearGradient>
    <linearGradient id="duelGrad" x1="0" y1="0" x2="1" y2="0">
      <stop offset="0" stop-color="#FFD166"/><stop offset="0.55" stop-color="#FFB300"/><stop offset="1" stop-color="#FF7A90"/>
    </linearGradient>
    <linearGradient id="edge" x1="0" y1="0" x2="1" y2="0">
      <stop offset="0" stop-color="#FF3D5A"/><stop offset="0.5" stop-color="#FFB300"/><stop offset="1" stop-color="#22D3EE"/>
    </linearGradient>
    <linearGradient id="beam" x1="0" y1="0" x2="1" y2="0">
      <stop offset="0" stop-color="#FFD166" stop-opacity="0"/><stop offset="0.5" stop-color="#FFD166" stop-opacity="0.45"/><stop offset="1" stop-color="#FFD166" stop-opacity="0"/>
    </linearGradient>
    <radialGradient id="packetR" cx="0.5" cy="0.5" r="0.5">
      <stop offset="0" stop-color="#ffffff"/><stop offset="0.5" stop-color="#FF7A90"/><stop offset="1" stop-color="#FF3D5A" stop-opacity="0"/>
    </radialGradient>
    <radialGradient id="packetC" cx="0.5" cy="0.5" r="0.5">
      <stop offset="0" stop-color="#ffffff"/><stop offset="0.5" stop-color="#7FE7F7"/><stop offset="1" stop-color="#22D3EE" stop-opacity="0"/>
    </radialGradient>
    <radialGradient id="packetG" cx="0.5" cy="0.5" r="0.5">
      <stop offset="0" stop-color="#ffffff"/><stop offset="0.5" stop-color="#FFD166"/><stop offset="1" stop-color="#FFB300" stop-opacity="0"/>
    </radialGradient>
    <radialGradient id="auroraR" cx="0.5" cy="0.5" r="0.5"><stop offset="0" stop-color="#FF3D5A" stop-opacity="0.4"/><stop offset="1" stop-color="#FF3D5A" stop-opacity="0"/></radialGradient>
    <radialGradient id="auroraCy" cx="0.5" cy="0.5" r="0.5"><stop offset="0" stop-color="#22D3EE" stop-opacity="0.4"/><stop offset="1" stop-color="#22D3EE" stop-opacity="0"/></radialGradient>
    <pattern id="scan" width="4" height="4" patternUnits="userSpaceOnUse"><rect width="4" height="1" y="0" fill="#171208" opacity="0.55"/></pattern>
    <!-- outlined wordmark glyph paths (Space Grotesk 700, size 72, baseline-anchored) -->
    <path id="wm-agent" d="M11.1 0L1.3 0L14.5-50.4L31.1-50.4L44.4 0L34.6 0L31.8-11.1L13.8-11.1L11.1 0ZM22.2-44.4L16.1-19.9L29.6-19.9L23.5-44.4L22.2-44.4ZM49.0-17.7L49.0-17.7L49.0-18.9Q49.0-24.5 51.2-28.5Q53.4-32.5 57.1-34.6Q60.8-36.7 65.2-36.7L65.2-36.7Q70.1-36.7 72.6-35.0Q75.2-33.3 76.3-31.4L76.3-31.4L77.6-31.4L77.6-35.7L86.5-35.7L86.5 6.3Q86.5 10.0 84.4 12.2Q82.2 14.4 78.6 14.4L78.6 14.4L54.7 14.4L54.7 6.5L75.5 6.5Q77.5 6.5 77.5 4.3L77.5 4.3L77.5-5.0L76.2-5.0Q75.5-3.8 74.2-2.6Q72.9-1.4 70.7-0.6Q68.5 0.1 65.2 0.1L65.2 0.1Q60.8 0.1 57.1-2.0Q53.4-4.1 51.2-8.1Q49.0-12.1 49.0-17.7ZM67.8-7.8L67.8-7.8Q72-7.8 74.8-10.4Q77.6-13.1 77.6-17.9L77.6-17.9L77.6-18.6Q77.6-23.5 74.8-26.2Q72.1-28.8 67.8-28.8L67.8-28.8Q63.6-28.8 60.8-26.2Q58.0-23.5 58.0-18.6L58.0-18.6L58.0-17.9Q58.0-13.1 60.8-10.4Q63.6-7.8 67.8-7.8ZM112.9 1.0L112.9 1.0Q107.6 1.0 103.5-1.3Q99.4-3.5 97.2-7.7Q94.9-11.8 94.9-17.4L94.9-17.4L94.9-18.3Q94.9-23.9 97.1-28.0Q99.4-32.2 103.4-34.5Q107.4-36.7 112.8-36.7L112.8-36.7Q118.0-36.7 121.9-34.4Q125.8-32.0 127.9-27.9Q130.1-23.8 130.1-18.3L130.1-18.3L130.1-15.2L104.1-15.2Q104.3-11.5 106.8-9.2Q109.4-6.9 113.2-6.9L113.2-6.9Q117-6.9 118.8-8.6Q120.6-10.2 121.5-12.2L121.5-12.2L129.0-8.4Q127.9-6.5 126.0-4.3Q124.1-2.1 121.0-0.5Q117.8 1.0 112.9 1.0ZM104.2-22.0L104.2-22.0L120.9-22.0Q120.6-25.1 118.4-26.9Q116.2-28.8 112.7-28.8L112.7-28.8Q109.0-28.8 106.8-26.9Q104.7-25.1 104.2-22.0ZM147.2 0L138.2 0L138.2-35.7L147.1-35.7L147.1-31.0L148.4-31.0Q149.3-32.9 151.6-34.6Q154.0-36.3 158.8-36.3L158.8-36.3Q163.0-36.3 166.1-34.4Q169.3-32.5 171.0-29.1Q172.7-25.8 172.7-21.3L172.7-21.3L172.7 0L163.7 0L163.7-20.6Q163.7-24.6 161.7-26.6Q159.7-28.7 156.0-28.7L156.0-28.7Q151.8-28.7 149.5-25.9Q147.2-23.1 147.2-18.1L147.2-18.1L147.2 0ZM205.3 0L195.2 0Q191.7 0 189.5-2.2Q187.3-4.4 187.3-8.1L187.3-8.1L187.3-28.2L178.3-28.2L178.3-35.7L187.3-35.7L187.3-46.8L196.3-46.8L196.3-35.7L206.1-35.7L206.1-28.2L196.3-28.2L196.3-9.6Q196.3-7.5 198.4-7.5L198.4-7.5L205.3-7.5L205.3 0Z"/>
    <path id="wm-duel" d="M24.0 0L3.3 0L3.3-8.4L9.9-8.4L9.9-42.0L3.3-42.0L3.3-50.4L24.0-50.4Q34.2-50.4 39.5-45.3Q44.8-40.1 44.8-30.0L44.8-30.0L44.8-20.4Q44.8-10.3 39.5-5.1Q34.2 0 24.0 0L24.0 0ZM19.4-41.8L19.4-8.6L24.2-8.6Q30.0-8.6 32.6-11.7Q35.3-14.7 35.3-20.2L35.3-20.2L35.3-30.2Q35.3-35.8 32.6-38.8Q30.0-41.8 24.2-41.8L24.2-41.8L19.4-41.8ZM66.6 0.6L66.6 0.6Q62.4 0.6 59.3-1.3Q56.2-3.2 54.4-6.6Q52.7-10.0 52.7-14.4L52.7-14.4L52.7-35.7L61.8-35.7L61.8-15.1Q61.8-11.1 63.8-9.1Q65.7-7.1 69.4-7.1L69.4-7.1Q73.6-7.1 75.9-9.8Q78.2-12.6 78.2-17.6L78.2-17.6L78.2-35.7L87.3-35.7L87.3 0L78.3 0L78.3-4.7L77.0-4.7Q76.2-2.9 73.8-1.2Q71.4 0.6 66.6 0.6ZM113.6 1.0L113.6 1.0Q108.3 1.0 104.2-1.3Q100.2-3.5 97.9-7.7Q95.6-11.8 95.6-17.4L95.6-17.4L95.6-18.3Q95.6-23.9 97.8-28.0Q100.1-32.2 104.1-34.5Q108.1-36.7 113.5-36.7L113.5-36.7Q118.7-36.7 122.6-34.4Q126.5-32.0 128.7-27.9Q130.8-23.8 130.8-18.3L130.8-18.3L130.8-15.2L104.8-15.2Q105.0-11.5 107.6-9.2Q110.2-6.9 113.9-6.9L113.9-6.9Q117.7-6.9 119.5-8.6Q121.3-10.2 122.3-12.2L122.3-12.2L129.7-8.4Q128.7-6.5 126.8-4.3Q124.8-2.1 121.7-0.5Q118.5 1.0 113.6 1.0ZM104.9-22.0L104.9-22.0L121.6-22.0Q121.3-25.1 119.1-26.9Q116.9-28.8 113.4-28.8L113.4-28.8Q109.7-28.8 107.6-26.9Q105.4-25.1 104.9-22.0ZM148.0 0L138.9 0L138.9-50.4L148.0-50.4L148.0 0Z"/>
    <clipPath id="duelClip"><use href="#wm-duel" x="214.3"/></clipPath>
    <filter id="glow" x="-40%" y="-40%" width="180%" height="180%"><feGaussianBlur stdDeviation="3.4" result="b"/><feMerge><feMergeNode in="b"/><feMergeNode in="SourceGraphic"/></feMerge></filter>
    <filter id="soft" x="-80%" y="-80%" width="260%" height="260%"><feGaussianBlur stdDeviation="34"/></filter>
    <filter id="trail" x="-50%" y="-50%" width="200%" height="200%"><feGaussianBlur stdDeviation="3.2"/></filter>
    <clipPath id="plateClip"><rect x="0" y="0" width="1280" height="320" rx="26"/></clipPath>
    <style>
      @keyframes metricPulse{0%,100%{opacity:.6}50%{opacity:1}}
      @keyframes twinkle{0%,100%{opacity:.25}50%{opacity:.9}}
      @keyframes markBreath{0%,100%{opacity:.28}82%{opacity:.6}}
      @keyframes stripPulse{0%,100%{opacity:.3}50%{opacity:.7}}
      @keyframes glitch{0%,7%,60%,100%{transform:translate(0,0)}61%{transform:translate(-2px,0)}63%{transform:translate(2px,1px)}65%{transform:translate(-1px,-1px)}8%{transform:translate(1.5px,0)}10%{transform:translate(-1.5px,0)}12%{transform:translate(0,0)}}
      .mp{animation:metricPulse 8s ease-in-out infinite}
      .tw{animation:twinkle 8s ease-in-out infinite}
      .mb{animation:markBreath 8s ease-in-out infinite}
      .sp{animation:stripPulse 8s ease-in-out infinite}
      .wm-main{animation:glitch 8s steps(1,end) infinite}
      @media (prefers-reduced-motion: reduce){*{animation:none !important}}
    </style>
  </defs>

  <rect x="0" y="0" width="1280" height="320" rx="26" fill="url(#plate)"/>
  <g clip-path="url(#plateClip)">
    <circle cx="700" cy="140" r="150" fill="url(#auroraR)" filter="url(#soft)"><animate attributeName="cx" values="700;660;700" dur="17s" repeatCount="indefinite"/></circle>
    <circle cx="1120" cy="200" r="150" fill="url(#auroraCy)" filter="url(#soft)"><animate attributeName="cy" values="200;160;200" dur="15s" repeatCount="indefinite"/></circle>
    <!-- clashing diagonals -->
    <g class="sp" stroke-width="2">
      <line x1="480" y1="330" x2="900" y2="-40" stroke="#FF3D5A" opacity="0.14"/>
      <line x1="900" y1="330" x2="1320" y2="-40" stroke="#22D3EE" opacity="0.14" transform="scale(-1,1) translate(-2220,0)"/>
      <line x1="560" y1="330" x2="980" y2="-40" stroke="#FF3D5A" opacity="0.08"/>
    </g>
    <g fill="#fff3dd">
      <circle class="tw" cx="180" cy="46" r="1.6"/><circle class="tw" cx="520" cy="40" r="1.4" style="animation-delay:-2s"/>
      <circle class="tw" cx="760" cy="56" r="1.8" style="animation-delay:-3s"/><circle class="tw" cx="1120" cy="44" r="1.5" style="animation-delay:-1s"/>
      <circle class="tw" cx="960" cy="70" r="1.3" style="animation-delay:-4s"/><circle class="tw" cx="640" cy="30" r="1.3" style="animation-delay:-2.6s"/>
    </g>
    <rect x="0" y="0" width="1280" height="320" fill="url(#scan)" opacity="0.35"/>
    <rect x="-260" y="0" width="220" height="320" fill="url(#beam)" opacity="0.4" transform="skewX(-18)">
      <animate attributeName="x" values="-300;-300;1500;1500" keyTimes="0;0.12;0.5;1" dur="8s" repeatCount="indefinite"/>
    </rect>

    <!-- ================= RIGHT: THE DUEL ================= -->
    <!-- center fixture card -->
    <g>
      <rect x="822" y="60" width="172" height="88" rx="12" fill="#171208" fill-opacity="0.9" stroke="#FFB300" stroke-width="1.6"/>
      <text x="908" y="86" text-anchor="middle" font-family="'Segoe UI',system-ui,-apple-system,sans-serif" font-size="12" letter-spacing="2" fill="#c9a35f">THE FINAL · JUL 19</text>
      <text x="908" y="112" text-anchor="middle" font-family="ui-monospace,SFMono-Regular,Menlo,Consolas,monospace" font-size="17" font-weight="700" fill="#f5e9d0">FRA vs ARG</text>
      <!-- purse -->
      <rect x="856" y="122" width="104" height="20" rx="10" fill="url(#duelGrad)"/>
      <text x="908" y="136" text-anchor="middle" font-family="ui-monospace,SFMono-Regular,Menlo,Consolas,monospace" font-size="11.5" font-weight="700" fill="#1a1102">PURSE 0.18</text>
      <!-- whistle flash ring -->
      <circle cx="908" cy="104" r="20" fill="none" stroke="#FFD166" stroke-width="3">
        <animate attributeName="r" values="16;16;90;90" keyTimes="0;0.52;0.68;1" dur="8s" repeatCount="indefinite"/>
        <animate attributeName="opacity" values="0;0;0.9;0;0" keyTimes="0;0.52;0.56;0.7;1" dur="8s" repeatCount="indefinite"/>
      </circle>
      <!-- EPIC: whistle shockwave (two expanding rings + white core burst) -->
      <circle cx="908" cy="104" r="10" fill="none" stroke="#FFD166" opacity="0">
        <animate attributeName="r" values="8;8;150;190" keyTimes="0;0.52;0.66;0.72" dur="8s" repeatCount="indefinite"/>
        <animate attributeName="opacity" values="0;0;1;0;0" keyTimes="0;0.52;0.55;0.68;1" dur="8s" repeatCount="indefinite"/>
        <animate attributeName="stroke-width" values="7;7;1;1" keyTimes="0;0.52;0.66;1" dur="8s" repeatCount="indefinite"/>
      </circle>
      <circle cx="908" cy="104" r="10" fill="none" stroke="#ffffff" opacity="0">
        <animate attributeName="r" values="6;6;100;130" keyTimes="0;0.53;0.63;0.7" dur="8s" repeatCount="indefinite"/>
        <animate attributeName="opacity" values="0;0;0.9;0;0" keyTimes="0;0.53;0.56;0.64;1" dur="8s" repeatCount="indefinite"/>
        <animate attributeName="stroke-width" values="5;5;1;1" keyTimes="0;0.53;0.63;1" dur="8s" repeatCount="indefinite"/>
      </circle>
      <circle cx="908" cy="104" r="52" fill="url(#packetG)" opacity="0">
        <animate attributeName="opacity" values="0;0;1;0;0" keyTimes="0;0.52;0.55;0.62;1" dur="8s" repeatCount="indefinite"/>
      </circle>
    </g>

    <!-- RED agent panel -->
    <g>
      <rect x="592" y="60" width="180" height="88" rx="12" fill="#1a0a0e" fill-opacity="0.85" stroke="#FF3D5A" stroke-width="1.6"/>
      <path d="M614 84 L630 93 L624 112 L604 112 L598 93 Z" fill="#FF3D5A" opacity="0.9"/>
      <text x="644" y="92" font-family="ui-monospace,SFMono-Regular,Menlo,Consolas,monospace" font-size="13" font-weight="700" fill="#FF7A90">AGENT RED</text>
      <text x="644" y="110" font-family="ui-monospace,SFMono-Regular,Menlo,Consolas,monospace" font-size="11" fill="#c98b97">paid edge · FRA ML</text>
      <!-- committed seal stamps at ~30% -->
      <g opacity="0" transform="rotate(-5 692 132)">
        <animate attributeName="opacity" values="0;0;1;1;0" keyTimes="0;0.28;0.32;0.96;1" dur="8s" repeatCount="indefinite"/>
        <rect x="608" y="120" width="130" height="21" rx="5" fill="none" stroke="#FF3D5A" stroke-width="1.8"/>
        <text x="673" y="135" text-anchor="middle" font-family="ui-monospace,SFMono-Regular,Menlo,Consolas,monospace" font-size="11.5" font-weight="700" fill="#FF7A90">COMMITTED T−0:04</text>
      </g>
    </g>
    <!-- CYAN agent panel -->
    <g>
      <rect x="1044" y="60" width="180" height="88" rx="12" fill="#06141a" fill-opacity="0.85" stroke="#22D3EE" stroke-width="1.6"/>
      <path d="M1066 84 L1082 93 L1076 112 L1056 112 L1050 93 Z" fill="#22D3EE" opacity="0.9"/>
      <text x="1096" y="92" font-family="ui-monospace,SFMono-Regular,Menlo,Consolas,monospace" font-size="13" font-weight="700" fill="#7FE7F7">AGENT CYAN</text>
      <text x="1096" y="110" font-family="ui-monospace,SFMono-Regular,Menlo,Consolas,monospace" font-size="11" fill="#8bb9c4">contrarian · ARG</text>
      <g opacity="0" transform="rotate(4 1134 132)">
        <animate attributeName="opacity" values="0;0;1;1;0" keyTimes="0;0.36;0.4;0.96;1" dur="8s" repeatCount="indefinite"/>
        <rect x="1060" y="120" width="130" height="21" rx="5" fill="none" stroke="#22D3EE" stroke-width="1.8"/>
        <text x="1125" y="135" text-anchor="middle" font-family="ui-monospace,SFMono-Regular,Menlo,Consolas,monospace" font-size="11.5" font-weight="700" fill="#7FE7F7">COMMITTED T−0:03</text>
      </g>
    </g>

    <!-- stake comets: red and cyan fly to the fixture card -->
    <g>
      <circle r="13" fill="url(#packetR)" filter="url(#trail)"/>
      <circle r="4.5" fill="#ffffff"/>
      <animateMotion path="M772 104 L822 104" keyPoints="0;0;1;1" keyTimes="0;0.2;0.3;1" dur="8s" repeatCount="indefinite"/>
      <animate attributeName="opacity" values="0;0;1;1;0;0" keyTimes="0;0.19;0.22;0.29;0.32;1" dur="8s" repeatCount="indefinite"/>
    </g>
    <g>
      <circle r="13" fill="url(#packetC)" filter="url(#trail)"/>
      <circle r="4.5" fill="#ffffff"/>
      <animateMotion path="M1044 104 L994 104" keyPoints="0;0;1;1" keyTimes="0;0.28;0.38;1" dur="8s" repeatCount="indefinite"/>
      <animate attributeName="opacity" values="0;0;1;1;0;0" keyTimes="0;0.27;0.3;0.37;0.4;1" dur="8s" repeatCount="indefinite"/>
    </g>
    <!-- payout comet: gold, flies to CYAN after the whistle -->
    <g>
      <circle r="16" fill="url(#packetG)" filter="url(#trail)"/>
      <circle r="5.5" fill="#ffffff"/>
      <animateMotion path="M908 104 Q980 84 1044 100" keyPoints="0;0;1;1" keyTimes="0;0.6;0.72;1" dur="8s" repeatCount="indefinite"/>
      <animate attributeName="opacity" values="0;0;1;1;0;0" keyTimes="0;0.59;0.62;0.72;0.76;1" dur="8s" repeatCount="indefinite"/>
    </g>
    <!-- cyan side floods on settle -->
    <rect x="1044" y="60" width="180" height="88" rx="12" fill="#22D3EE" opacity="0">
      <animate attributeName="opacity" values="0;0;0.18;0.18;0" keyTimes="0;0.72;0.78;0.96;1" dur="8s" repeatCount="indefinite"/>
    </rect>
    <!-- EPIC: winner confetti rains on CYAN (the victor) -->
    <g>
      <rect x="1064" y="52" width="5" height="9" rx="1.5" fill="#FFD166" opacity="0"><animate attributeName="y" values="52;52;150" keyTimes="0;0.72;0.94" dur="8s" repeatCount="indefinite"/><animate attributeName="opacity" values="0;0;1;0" keyTimes="0;0.72;0.8;0.95" dur="8s" repeatCount="indefinite"/></rect>
      <rect x="1096" y="48" width="5" height="9" rx="1.5" fill="#7FE7F7" opacity="0"><animate attributeName="y" values="48;48;150" keyTimes="0;0.74;0.95" dur="8s" repeatCount="indefinite"/><animate attributeName="opacity" values="0;0;1;0" keyTimes="0;0.74;0.82;0.96" dur="8s" repeatCount="indefinite"/></rect>
      <rect x="1128" y="54" width="5" height="9" rx="1.5" fill="#FFEDB0" opacity="0"><animate attributeName="y" values="54;54;152" keyTimes="0;0.73;0.95" dur="8s" repeatCount="indefinite"/><animate attributeName="opacity" values="0;0;1;0" keyTimes="0;0.73;0.81;0.96" dur="8s" repeatCount="indefinite"/></rect>
      <rect x="1160" y="50" width="5" height="9" rx="1.5" fill="#FFD166" opacity="0"><animate attributeName="y" values="50;50;150" keyTimes="0;0.75;0.96" dur="8s" repeatCount="indefinite"/><animate attributeName="opacity" values="0;0;1;0" keyTimes="0;0.75;0.83;0.97" dur="8s" repeatCount="indefinite"/></rect>
      <rect x="1192" y="56" width="5" height="9" rx="1.5" fill="#7FE7F7" opacity="0"><animate attributeName="y" values="56;56;150" keyTimes="0;0.74;0.95" dur="8s" repeatCount="indefinite"/><animate attributeName="opacity" values="0;0;1;0" keyTimes="0;0.74;0.82;0.96" dur="8s" repeatCount="indefinite"/></rect>
      <rect x="1080" y="58" width="5" height="9" rx="1.5" fill="#FFEDB0" opacity="0"><animate attributeName="y" values="58;58;152" keyTimes="0;0.76;0.97" dur="8s" repeatCount="indefinite"/><animate attributeName="opacity" values="0;0;1;0" keyTimes="0;0.76;0.84;0.98" dur="8s" repeatCount="indefinite"/></rect>
      <rect x="1144" y="46" width="5" height="9" rx="1.5" fill="#FFD166" opacity="0"><animate attributeName="y" values="46;46;150" keyTimes="0;0.72;0.94" dur="8s" repeatCount="indefinite"/><animate attributeName="opacity" values="0;0;1;0" keyTimes="0;0.72;0.8;0.95" dur="8s" repeatCount="indefinite"/></rect>
    </g>

    <!-- evidence strip -->
    <g>
      <rect x="592" y="176" width="632" height="104" rx="12" fill="#120e08" fill-opacity="0.8" stroke="#3d3220" stroke-width="1.4"/>
      <text x="612" y="204" font-family="'Segoe UI',system-ui,-apple-system,sans-serif" font-size="12" letter-spacing="2" fill="#c9a35f">EVERY LEG ON-CHAIN · INJECTIVE EVM MAINNET</text>
      <!-- five hash chips -->
      <g font-family="ui-monospace,SFMono-Regular,Menlo,Consolas,monospace" font-size="11.5">
        <rect x="612" y="220" width="112" height="22" rx="6" fill="#1a0a0e" stroke="#FF3D5A" stroke-width="1.2"/><text x="622" y="236" fill="#FF7A90">cctp 0x4a…f2</text>
        <rect x="732" y="220" width="112" height="22" rx="6" fill="#06141a" stroke="#22D3EE" stroke-width="1.2"/><text x="742" y="236" fill="#7FE7F7">cctp 0x8d…1c</text>
        <rect x="852" y="220" width="112" height="22" rx="6" fill="#1a0a0e" stroke="#FF3D5A" stroke-width="1.2"/><text x="862" y="236" fill="#FF7A90">stake 0x2e…9b</text>
        <rect x="972" y="220" width="112" height="22" rx="6" fill="#06141a" stroke="#22D3EE" stroke-width="1.2"/><text x="982" y="236" fill="#7FE7F7">stake 0x7c…44</text>
        <g opacity="0">
          <animate attributeName="opacity" values="0;0;1;1;0" keyTimes="0;0.74;0.8;0.97;1" dur="8s" repeatCount="indefinite"/>
          <rect x="1092" y="220" width="116" height="22" rx="6" fill="url(#duelGrad)"/>
          <text x="1102" y="236" fill="#1a1102" font-weight="700">payout 0x9f…a1</text>
        </g>
      </g>
      <text x="612" y="268" font-family="ui-monospace,SFMono-Regular,Menlo,Consolas,monospace" font-size="12" fill="#8f7f5c">settle: transfer_send · 650ms after the whistle · fee + void rule stated up front</text>
    </g>

    <!-- ================= LEFT: BRAND ================= -->
    <g class="mb" filter="url(#soft)">
      <circle cx="92" cy="108" r="34" fill="#FFB300"/>
    </g>
    <!-- mini mark: coin + crossed blades -->
    <g filter="url(#glow)">
      <circle cx="92" cy="108" r="30" fill="url(#duelGrad)" stroke="#5b3f00" stroke-width="2"/>
      <path d="M92 90 L109 102.4 L102.5 122.4 L81.5 122.4 L75 102.4 Z" fill="none" stroke="#5b3f00" stroke-width="2.6" stroke-linejoin="round" opacity="0.85"/>
      <path d="M56 140 L118 66" stroke="#FF3D5A" stroke-width="9" stroke-linecap="round"/>
      <path d="M128 140 L66 66" stroke="#22D3EE" stroke-width="9" stroke-linecap="round"/>
      <circle cx="92" cy="103" r="5.5" fill="#ffffff"/>
    </g>

    <!-- outlined wordmark: Agent (white) + Duel (gold gradient) -->
    <g transform="translate(156,124)">
      <g fill="#FF3D5A" opacity="0.3" transform="translate(-2.6,0)"><use href="#wm-agent"/><use href="#wm-duel" x="214.3"/></g>
      <g fill="#22D3EE" opacity="0.3" transform="translate(2.6,0)"><use href="#wm-agent"/><use href="#wm-duel" x="214.3"/></g>
      <g class="wm-main">
        <use href="#wm-agent" fill="#f1f5f9"/>
        <use href="#wm-duel" x="214.3" fill="url(#duelGrad)"/>
        <g clip-path="url(#duelClip)">
          <rect x="190" y="-54" width="34" height="62" fill="#ffffff" opacity="0.55" transform="skewX(-20)">
            <animate attributeName="x" values="190;190;420;420" keyTimes="0;0.28;0.5;1" dur="8s" repeatCount="indefinite"/>
            <animate attributeName="opacity" values="0;0;0.6;0;0" keyTimes="0;0.28;0.4;0.52;1" dur="8s" repeatCount="indefinite"/>
          </rect>
        </g>
      </g>
    </g>

    <text x="60" y="176" font-family="'Segoe UI',system-ui,-apple-system,sans-serif" font-size="19" font-weight="600" fill="#f5ead6">Two agents. One match. On-chain settlement.</text>
    <text class="mp" x="60" y="206" font-family="ui-monospace,SFMono-Regular,Menlo,Consolas,monospace" font-size="13.5" fill="#FFD166">The Final, settled between two AIs — five clickable hashes.</text>
    <rect x="60" y="224" width="380" height="1" fill="#6b5323" opacity="0.6"/>
    <text x="60" y="250" font-family="ui-monospace,SFMono-Regular,Menlo,Consolas,monospace" font-size="12.5" fill="#9a8a66" letter-spacing="0.4">Injective x402 · MCP Server · Agent Skills · USDC CCTP</text>

    <!-- EPIC: whistle screen-flash (brief gold impact across the whole plate) -->
    <rect x="0" y="0" width="1280" height="320" fill="#FFE9A8" opacity="0" pointer-events="none">
      <animate attributeName="opacity" values="0;0;0.12;0;0" keyTimes="0;0.52;0.55;0.62;1" dur="8s" repeatCount="indefinite"/>
    </rect>
  </g>
  <rect x="0.75" y="0.75" width="1278.5" height="318.5" rx="25.5" fill="none" stroke="#4a3d23" stroke-width="1.5" opacity="0.7"/>
</svg>
